<?xml version="1.0" encoding="utf-8"?>
<!-- Generator: Adobe Illustrator 15.0.2, SVG Export Plug-In  -->
<!DOCTYPE svg PUBLIC "-//W3C//DTD SVG 1.1//EN" "http://www.w3.org/Graphics/SVG/1.1/DTD/svg11.dtd" [
	<!ENTITY ns_flows "http://ns.adobe.com/Flows/1.0/">
]>
<svg version="1.1"
	 xmlns="http://www.w3.org/2000/svg" xmlns:xlink="http://www.w3.org/1999/xlink" xmlns:a="http://ns.adobe.com/AdobeSVGViewerExtensions/3.0/"
	 x="0px" y="0px" width="162px" height="162px" viewBox="-8 -8 162 162" overflow="visible" enable-background="new -8 -8 162 162"
	 xml:space="preserve">
<defs>
</defs>
<linearGradient id="SVGID_1_" gradientUnits="userSpaceOnUse" x1="1" y1="73" x2="73" y2="73">
	<stop  offset="0" style="stop-color:#FFFFFF"/>
	<stop  offset="0.1746" style="stop-color:#FCFEFF"/>
	<stop  offset="0.3149" style="stop-color:#F2FAFD"/>
	<stop  offset="0.4433" style="stop-color:#E1F3FB"/>
	<stop  offset="0.5646" style="stop-color:#C9EAF8"/>
	<stop  offset="0.6809" style="stop-color:#AADEF4"/>
	<stop  offset="0.7935" style="stop-color:#84CFEE"/>
	<stop  offset="0.901" style="stop-color:#59BEE8"/>
	<stop  offset="1" style="stop-color:#29ABE2"/>
</linearGradient>
<circle fill="url(#SVGID_1_)" cx="37" cy="73" r="36"/>
<linearGradient id="SVGID_2_" gradientUnits="userSpaceOnUse" x1="73" y1="1" x2="73" y2="73">
	<stop  offset="0" style="stop-color:#FFFFFF"/>
	<stop  offset="0.1729" style="stop-color:#FFFDFC"/>
	<stop  offset="0.3119" style="stop-color:#FEF5F2"/>
	<stop  offset="0.4391" style="stop-color:#FDE8E1"/>
	<stop  offset="0.5592" style="stop-color:#FCD6C9"/>
	<stop  offset="0.6745" style="stop-color:#FABFAA"/>
	<stop  offset="0.786" style="stop-color:#F7A384"/>
	<stop  offset="0.8931" style="stop-color:#F48158"/>
	<stop  offset="0.9967" style="stop-color:#F15B26"/>
	<stop  offset="1" style="stop-color:#F15A24"/>
</linearGradient>
<circle fill="url(#SVGID_2_)" cx="73" cy="37" r="36"/>
<linearGradient id="SVGID_3_" gradientUnits="userSpaceOnUse" x1="73" y1="145" x2="73" y2="73">
	<stop  offset="0" style="stop-color:#FFFFFF"/>
	<stop  offset="0.1803" style="stop-color:#FCFEFC"/>
	<stop  offset="0.3252" style="stop-color:#F2FAF3"/>
	<stop  offset="0.4578" style="stop-color:#E1F4E3"/>
	<stop  offset="0.583" style="stop-color:#C9EBCE"/>
	<stop  offset="0.7032" style="stop-color:#AADFB2"/>
	<stop  offset="0.8194" style="stop-color:#84D18F"/>
	<stop  offset="0.9304" style="stop-color:#59C167"/>
	<stop  offset="1" style="stop-color:#39B54A"/>
</linearGradient>
<circle fill="url(#SVGID_3_)" cx="73" cy="109" r="36"/>
<linearGradient id="SVGID_4_" gradientUnits="userSpaceOnUse" x1="145" y1="73" x2="73" y2="73">
	<stop  offset="0" style="stop-color:#FFFFFF"/>
	<stop  offset="0.172" style="stop-color:#FFFFFC"/>
	<stop  offset="0.3101" style="stop-color:#FFFEF2"/>
	<stop  offset="0.4366" style="stop-color:#FFFDE1"/>
	<stop  offset="0.5561" style="stop-color:#FEFBC9"/>
	<stop  offset="0.6707" style="stop-color:#FEF9AA"/>
	<stop  offset="0.7816" style="stop-color:#FDF684"/>
	<stop  offset="0.8895" style="stop-color:#FDF258"/>
	<stop  offset="0.9926" style="stop-color:#FCEE25"/>
	<stop  offset="1" style="stop-color:#FCEE21"/>
</linearGradient>
<circle fill="url(#SVGID_4_)" cx="109" cy="73" r="36"/>
<g>
	<g>
		<path fill="#00FFFF" d="M73,73c-19.883,0-36,16.117-36,36C56.883,109,73,92.883,73,73z"/>
	</g>
	<g>
		<path fill="none" stroke="#000000" stroke-width="4" stroke-linecap="round" stroke-linejoin="round" d="M73,73
			c-19.883,0-36,16.117-36,36C56.883,109,73,92.883,73,73z"/>
	</g>
</g>
<g>
	<g>
		<path fill="#FF00FF" d="M37,37c0,19.882,16.117,36,36,36C73,53.118,56.883,37,37,37z"/>
	</g>
	<g>
		<path fill="none" stroke="#000000" stroke-width="4" stroke-linecap="round" stroke-linejoin="round" d="M37,37
			c0,19.882,16.117,36,36,36C73,53.118,56.883,37,37,37z"/>
	</g>
</g>
<g>
	<g>
		<path fill="#00FF00" d="M73,73c0,19.883,16.117,36,36,36C109,89.117,92.883,73,73,73z"/>
	</g>
	<g>
		<path fill="none" stroke="#000000" stroke-width="4" stroke-linecap="round" stroke-linejoin="round" d="M73,73
			c0,19.883,16.117,36,36,36C109,89.117,92.883,73,73,73z"/>
	</g>
</g>
<g>
	<g>
		<path fill="#F7931E" d="M109,37c-19.883,0-36,16.118-36,36C92.883,73,109,56.882,109,37z"/>
	</g>
	<g>
		<path fill="none" stroke="#000000" stroke-width="4" stroke-linecap="round" stroke-linejoin="round" d="M109,37
			c-19.883,0-36,16.118-36,36C92.883,73,109,56.882,109,37z"/>
	</g>
</g>
<circle fill="none" stroke="#000000" stroke-width="2" stroke-linecap="round" stroke-linejoin="round" cx="109" cy="73" r="36"/>
<circle fill="none" stroke="#000000" stroke-width="2" stroke-linecap="round" stroke-linejoin="round" cx="37" cy="73" r="36"/>
<circle fill="none" stroke="#000000" stroke-width="2" stroke-linecap="round" stroke-linejoin="round" cx="73" cy="37" r="36"/>
<circle fill="none" stroke="#000000" stroke-width="2" stroke-linecap="round" stroke-linejoin="round" cx="73" cy="109" r="36"/>
</svg>
