<?xml version="1.0" encoding="utf-8"?>
<!-- Generator: Adobe Illustrator 13.0.2, SVG Export Plug-In . SVG Version: 6.00 Build 14948)  -->
<!DOCTYPE svg PUBLIC "-//W3C//DTD SVG 1.1//EN" "http://www.w3.org/Graphics/SVG/1.1/DTD/svg11.dtd">
<svg version="1.1" id="Layer_1" xmlns="http://www.w3.org/2000/svg" xmlns:xlink="http://www.w3.org/1999/xlink" x="0px" y="0px"
	 width="162px" height="162px" viewBox="0 0 162 162" enable-background="new 0 0 162 162" xml:space="preserve">
<g>
	<circle fill="#FFFFFF" cx="45" cy="81" r="36"/>
	<circle fill="#FFFFFF" cx="81" cy="45" r="36"/>
	<circle fill="#FFFFFF" cx="81" cy="117" r="36"/>
	<path fill="#FFFF00" d="M117,81h36c0,19.883-16.117,36-36,36c-19.882,0-36-16.117-36-36s16.118-36,36-36
		c10.57,0,20.076,4.555,26.662,11.81"/>
	<g>
		<g>
			<path fill="#00FFFF" d="M81,81c-19.883,0-36,16.117-36,36C64.883,117,81,100.883,81,81z"/>
		</g>
	</g>
	<g>
		<g>
			<path fill="#FF00FF" d="M45,45c0,19.883,16.117,36,36,36C81,61.117,64.883,45,45,45z"/>
		</g>
	</g>
	<g>
		<g>
			<path fill="#00FF00" d="M81,81c0,19.883,16.117,36,36,36C117,97.117,100.883,81,81,81z"/>
		</g>
	</g>
	<g>
		<g>
			<path fill="#F7931E" d="M117,45c-19.883,0-36,16.117-36,36C100.883,81,117,64.883,117,45z"/>
		</g>
	</g>
	<path fill="none" stroke="#000000" stroke-width="4" stroke-linecap="round" stroke-linejoin="round" d="M117,81h36
		c0,19.883-16.117,36-36,36c-19.882,0-36-16.117-36-36s16.118-36,36-36c10.57,0,20.076,4.555,26.662,11.81"/>
	<circle fill="none" stroke="#000000" stroke-width="2" stroke-linecap="round" stroke-linejoin="round" cx="45" cy="81" r="36"/>
	<circle fill="none" stroke="#000000" stroke-width="2" stroke-linecap="round" stroke-linejoin="round" cx="81" cy="45" r="36"/>
	<circle fill="none" stroke="#000000" stroke-width="2" stroke-linecap="round" stroke-linejoin="round" cx="81" cy="117" r="36"/>
</g>
</svg>
